<svg width="35" height="35" viewBox="0 0 35 35" fill="none" xmlns="http://www.w3.org/2000/svg">
<g id="Delete">
<circle id="Ellipse 5" cx="17.5" cy="17.5" r="17.5" fill="#FFF3F3"/>
<g id="Bin icon">
<path id="Vector" d="M25.1048 11.2551H22.9182C22.889 11.2449 22.8586 11.2383 22.8278 11.2353H20.4997V9.30448C20.4998 9.15938 20.443 9.02007 20.3416 8.91643C20.24 8.81281 20.102 8.75303 19.9571 8.75H14.4512C14.3041 8.75 14.1631 8.80833 14.0592 8.91235C13.9552 9.01637 13.8967 9.15739 13.8967 9.30448V11.2353H11.5805C11.5497 11.2383 11.5193 11.2449 11.49 11.2551H9.30349C9.10533 11.2551 8.92229 11.3607 8.82329 11.5322C8.72427 11.7038 8.72427 11.9151 8.82329 12.0867C8.9223 12.2583 9.10533 12.364 9.30349 12.364H11.0849L12.5243 25.7545C12.5397 25.8908 12.6048 26.0166 12.7071 26.1081C12.8093 26.1994 12.9416 26.2499 13.0788 26.25H21.3373C21.473 26.248 21.6034 26.1965 21.7041 26.1054C21.8047 26.0142 21.8686 25.8895 21.8838 25.7545L23.3231 12.3835H25.1047C25.3028 12.3835 25.4859 12.2779 25.5849 12.1064C25.6839 11.9348 25.6839 11.7233 25.5849 11.5519C25.4859 11.3803 25.3028 11.2746 25.1047 11.2746L25.1048 11.2551ZM15.0176 9.85894H19.3906V11.2353H15.0176V9.85894ZM20.834 25.1331H13.5743L12.1979 12.3837H22.2102L20.834 25.1331Z" fill="#E41D1D"/>
<path id="Vector_2" d="M17.2049 23.8356C17.3519 23.8356 17.493 23.7771 17.597 23.6732C17.701 23.5692 17.7593 23.4282 17.7593 23.2811V14.2362C17.7593 14.038 17.6537 13.855 17.4822 13.756C17.3106 13.6569 17.0991 13.6569 16.9276 13.756C16.756 13.855 16.6504 14.038 16.6504 14.2362V23.2811C16.6504 23.4282 16.7087 23.5692 16.8127 23.6732C16.9168 23.7771 17.0578 23.8356 17.2049 23.8356H17.2049Z" fill="#E41D1D"/>
<path id="Vector_3" d="M15.021 23.8316H15.0445C15.191 23.8255 15.3289 23.7617 15.4285 23.6541C15.5279 23.5465 15.5808 23.4039 15.5755 23.2575L15.2411 14.2126L15.2413 14.2125C15.2382 14.0643 15.1749 13.9237 15.0657 13.8234C14.9565 13.7232 14.8111 13.672 14.6631 13.6816C14.5167 13.6878 14.3787 13.7516 14.2793 13.8592C14.1797 13.9668 14.1269 14.1094 14.1322 14.2558L14.4665 23.3007C14.4735 23.4433 14.5348 23.5779 14.6381 23.6766C14.7412 23.7752 14.8782 23.8308 15.021 23.8316L15.021 23.8316Z" fill="#E41D1D"/>
<path id="Vector_4" d="M19.3676 23.8311H19.3872C19.5334 23.8344 19.6749 23.7802 19.7816 23.6802C19.8881 23.5801 19.9513 23.4423 19.9575 23.2962L20.2918 14.2514H20.2917C20.2971 14.1049 20.2441 13.9623 20.1447 13.8548C20.0452 13.7472 19.9072 13.6833 19.7608 13.6771C19.611 13.6617 19.4617 13.71 19.3494 13.8104C19.2371 13.9106 19.1723 14.0536 19.1709 14.2042L18.8326 23.2491H18.8327C18.8252 23.3975 18.8776 23.5427 18.9782 23.6522C19.0787 23.7616 19.2191 23.8261 19.3676 23.8311L19.3676 23.8311Z" fill="#E41D1D"/>
</g>
</g>
</svg>
