<svg width="46" height="65" viewBox="0 0 46 65" fill="none" xmlns="http://www.w3.org/2000/svg">
<g id="Layer 2">
<g id="Layer 1">
<path id="Vector" d="M44.7767 9.22273L39.441 13.376L35.806 16.2045C35.6559 16.3213 35.4761 16.3936 35.2869 16.4131C35.0977 16.4327 34.9069 16.3987 34.7361 16.315C34.5653 16.2313 34.4215 16.1014 34.321 15.9399C34.2205 15.7785 34.1674 15.5921 34.1677 15.4019V12.361C34.1677 12.6302 34.0608 12.8883 33.8704 13.0787C33.6801 13.269 33.4219 13.376 33.1528 13.376H8.75747C6.93591 13.3784 5.16089 13.9515 3.68184 15.0147C2.20279 16.078 1.09405 17.578 0.511428 19.3038L0.472467 19.5493C0.465302 19.6014 0.43853 19.6488 0.397615 19.6818C0.356699 19.7148 0.304723 19.731 0.252288 19.727C0.199852 19.7231 0.150907 19.6992 0.115441 19.6604C0.0799745 19.6216 0.0606587 19.5707 0.0614311 19.5181C0.0614311 18.6688 0.061431 17.7123 0.0400026 16.6662C0.00493787 13.7344 -0.0379189 13.3331 0.0614311 12.3708C0.328312 9.79546 0.550388 7.65651 2.15752 6.01821C4.27114 3.86563 7.65683 3.71952 8.75747 3.67082C9.1802 3.65329 9.53669 3.66108 9.76656 3.67082H33.1528C33.4219 3.67082 33.6801 3.77775 33.8704 3.96809C34.0608 4.15842 34.1677 4.41658 34.1677 4.68575V1.44032C34.1677 1.25032 34.2211 1.06414 34.3218 0.902988C34.4224 0.741832 34.5663 0.612164 34.737 0.528739C34.9077 0.445314 35.0984 0.411485 35.2874 0.431096C35.4764 0.450708 35.656 0.522975 35.806 0.639675L39.7021 3.67082L44.7787 7.62144C44.9004 7.71649 44.9988 7.83806 45.0664 7.97689C45.134 8.11572 45.1691 8.26814 45.1689 8.42256C45.1687 8.57698 45.1333 8.72933 45.0653 8.86799C44.9973 9.00665 44.8986 9.12798 44.7767 9.22273Z" fill="white"/>
<path id="Vector_2" d="M25.4756 31.3446C24.9827 34.666 21.5892 38.1121 18.2172 38.1121H10.0744C9.8052 38.1121 9.54705 38.0052 9.35672 37.8149C9.16638 37.6245 9.05945 37.3664 9.05945 37.0972V39.4719C9.05957 39.659 9.00792 39.8426 8.91022 40.0023C8.81252 40.1619 8.67256 40.2915 8.50583 40.3765C8.3391 40.4616 8.15209 40.4989 7.96548 40.4843C7.77887 40.4698 7.59992 40.4039 7.44842 40.2939L4.4426 38.1121L0.478342 35.229C0.348396 35.1351 0.242586 35.0118 0.169616 34.869C0.0966447 34.7263 0.0585938 34.5682 0.0585938 34.4079C0.0585938 34.2476 0.0966447 34.0896 0.169616 33.9468C0.242586 33.8041 0.348396 33.6807 0.478342 33.5868L4.65883 30.5537L7.44842 28.5297C7.59992 28.4198 7.77887 28.3539 7.96548 28.3393C8.15209 28.3247 8.3391 28.362 8.50583 28.4471C8.67256 28.5322 8.81252 28.6617 8.91022 28.8214C9.00792 28.981 9.05957 29.1646 9.05945 29.3518V31.5687C9.05945 31.2995 9.16638 31.0413 9.35672 30.851C9.54705 30.6607 9.8052 30.5537 10.0744 30.5537H18.2172C19.3863 30.5658 20.5416 30.3008 21.5886 29.7803C22.6355 29.2599 23.5443 28.4989 24.2405 27.5596C24.4642 27.2477 24.6598 26.9165 24.8249 26.57C24.8569 26.5036 24.9102 26.4497 24.9762 26.4169C25.0423 26.3842 25.1174 26.3744 25.1896 26.3892C25.2619 26.4039 25.3271 26.4424 25.375 26.4984C25.4229 26.5545 25.4508 26.6249 25.4541 26.6986C25.4678 27.0219 25.4795 27.3687 25.4892 27.7369C25.5418 29.7356 25.5671 30.7291 25.4756 31.3446Z" fill="white"/>
<path id="Vector_3" d="M9.32499 46.7225C9.59417 46.7225 9.85232 46.8294 10.0427 47.0197C10.233 47.2101 10.3399 47.4682 10.3399 47.7374V55.4224C10.3394 57.7294 9.42257 59.9418 7.79108 61.5729C6.15958 63.2041 3.94701 64.1204 1.63998 64.1204H1.62829C1.36218 64.1163 1.10842 64.0074 0.922068 63.8174C0.735711 63.6274 0.631786 63.3716 0.632843 63.1055V47.7277C0.630764 47.4612 0.734354 47.2048 0.920929 47.0146C1.1075 46.8244 1.36186 46.7158 1.62829 46.7127H9.32499V46.7225Z" fill="white"/>
<g id="Group 176794">
<path id="Vector_4" d="M4.65529 47.4871H4.1001V48.0255H4.65529V47.4871Z" fill="#2C2C2C"/>
<path id="Vector_5" d="M5.76369 47.4871H5.2085V48.0255H5.76369V47.4871Z" fill="#2C2C2C"/>
<path id="Vector_6" d="M6.87208 47.4871H6.31689V48.0255H6.87208V47.4871Z" fill="#2C2C2C"/>
<path id="Vector_7" d="M4.65529 48.0255H4.1001V48.5639H4.65529V48.0255Z" fill="#2C2C2C"/>
<path id="Vector_8" d="M2.71242 48.2938H2.15723V48.8321H2.71242V48.2938Z" fill="#2C2C2C"/>
<path id="Vector_9" d="M6.31886 48.0255H5.76367V48.5639H6.31886V48.0255Z" fill="#2C2C2C"/>
<path id="Vector_10" d="M6.87208 48.0255H6.31689V48.5639H6.87208V48.0255Z" fill="#2C2C2C"/>
<path id="Vector_11" d="M4.65529 48.562H4.1001V49.1004H4.65529V48.562Z" fill="#2C2C2C"/>
<path id="Vector_12" d="M5.20802 48.562H4.65283V49.1004H5.20802V48.562Z" fill="#2C2C2C"/>
<path id="Vector_13" d="M5.76369 48.562H5.2085V49.1004H5.76369V48.562Z" fill="#2C2C2C"/>
<path id="Vector_14" d="M6.87208 48.562H6.31689V49.1004H6.87208V48.562Z" fill="#2C2C2C"/>
<path id="Vector_15" d="M2.9898 47.4871H1.32617V49.6387H3.54304V47.4871H2.9898ZM2.9898 48.562V49.1003H1.88136V48.0255H2.9898V48.562Z" fill="#2C2C2C"/>
<path id="Vector_16" d="M5.76369 49.1003H5.2085V49.6387H5.76369V49.1003Z" fill="#2C2C2C"/>
<path id="Vector_17" d="M6.31886 49.1003H5.76367V49.6387H6.31886V49.1003Z" fill="#2C2C2C"/>
<path id="Vector_18" d="M9.09087 47.4871H7.42725V49.6387H9.64412V47.4871H9.09087ZM9.09087 48.562V49.1003H7.98049V48.0255H9.09087V48.562Z" fill="#2C2C2C"/>
<path id="Vector_19" d="M8.81398 48.2938H8.25879V48.8321H8.81398V48.2938Z" fill="#2C2C2C"/>
<path id="Vector_20" d="M4.65529 49.6387H4.1001V50.1771H4.65529V49.6387Z" fill="#2C2C2C"/>
<path id="Vector_21" d="M6.87208 49.6387H6.31689V50.1771H6.87208V49.6387Z" fill="#2C2C2C"/>
<path id="Vector_22" d="M1.88136 50.1752H1.32617V50.7136H1.88136V50.1752Z" fill="#2C2C2C"/>
<path id="Vector_23" d="M2.43605 50.1752H1.88086V50.7136H2.43605V50.1752Z" fill="#2C2C2C"/>
<path id="Vector_24" d="M2.99122 50.1752H2.43604V50.7136H2.99122V50.1752Z" fill="#2C2C2C"/>
<path id="Vector_25" d="M4.09963 50.1752H3.54443V50.7136H4.09963V50.1752Z" fill="#2C2C2C"/>
<path id="Vector_26" d="M5.76369 50.1752H5.2085V50.7136H5.76369V50.1752Z" fill="#2C2C2C"/>
<path id="Vector_27" d="M6.31886 50.1752H5.76367V50.7136H6.31886V50.1752Z" fill="#2C2C2C"/>
<path id="Vector_28" d="M7.42677 50.1752H6.87158V50.7136H7.42677V50.1752Z" fill="#2C2C2C"/>
<path id="Vector_29" d="M7.98244 50.1752H7.42725V50.7136H7.98244V50.1752Z" fill="#2C2C2C"/>
<path id="Vector_30" d="M9.09035 50.1752H8.53516V50.7136H9.09035V50.1752Z" fill="#2C2C2C"/>
<path id="Vector_31" d="M9.64601 50.1752H9.09082V50.7136H9.64601V50.1752Z" fill="#2C2C2C"/>
<path id="Vector_32" d="M2.43605 50.7136H1.88086V51.2519H2.43605V50.7136Z" fill="#2C2C2C"/>
<path id="Vector_33" d="M3.54445 50.7136H2.98926V51.2519H3.54445V50.7136Z" fill="#2C2C2C"/>
<path id="Vector_34" d="M4.09963 50.7136H3.54443V51.2519H4.09963V50.7136Z" fill="#2C2C2C"/>
<path id="Vector_35" d="M4.65529 50.7136H4.1001V51.2519H4.65529V50.7136Z" fill="#2C2C2C"/>
<path id="Vector_36" d="M5.76369 50.7136H5.2085V51.2519H5.76369V50.7136Z" fill="#2C2C2C"/>
<path id="Vector_37" d="M6.87208 50.7136H6.31689V51.2519H6.87208V50.7136Z" fill="#2C2C2C"/>
<path id="Vector_38" d="M8.53517 50.7136H7.97998V51.2519H8.53517V50.7136Z" fill="#2C2C2C"/>
<path id="Vector_39" d="M1.88136 51.2519H1.32617V51.7903H1.88136V51.2519Z" fill="#2C2C2C"/>
<path id="Vector_40" d="M2.43605 51.2519H1.88086V51.7903H2.43605V51.2519Z" fill="#2C2C2C"/>
<path id="Vector_41" d="M2.99122 51.2519H2.43604V51.7903H2.99122V51.2519Z" fill="#2C2C2C"/>
<path id="Vector_42" d="M4.65529 51.2519H4.1001V51.7903H4.65529V51.2519Z" fill="#2C2C2C"/>
<path id="Vector_43" d="M5.20802 51.2519H4.65283V51.7903H5.20802V51.2519Z" fill="#2C2C2C"/>
<path id="Vector_44" d="M6.31886 51.2519H5.76367V51.7903H6.31886V51.2519Z" fill="#2C2C2C"/>
<path id="Vector_45" d="M6.87208 51.2519H6.31689V51.7903H6.87208V51.2519Z" fill="#2C2C2C"/>
<path id="Vector_46" d="M7.42677 51.2519H6.87158V51.7903H7.42677V51.2519Z" fill="#2C2C2C"/>
<path id="Vector_47" d="M9.64601 51.2519H9.09082V51.7903H9.64601V51.2519Z" fill="#2C2C2C"/>
<path id="Vector_48" d="M1.88136 51.7884H1.32617V52.3268H1.88136V51.7884Z" fill="#2C2C2C"/>
<path id="Vector_49" d="M2.99122 51.7884H2.43604V52.3268H2.99122V51.7884Z" fill="#2C2C2C"/>
<path id="Vector_50" d="M3.54445 51.7884H2.98926V52.3268H3.54445V51.7884Z" fill="#2C2C2C"/>
<path id="Vector_51" d="M5.76369 51.7884H5.2085V52.3268H5.76369V51.7884Z" fill="#2C2C2C"/>
<path id="Vector_52" d="M6.31886 51.7884H5.76367V52.3268H6.31886V51.7884Z" fill="#2C2C2C"/>
<path id="Vector_53" d="M7.42677 51.7884H6.87158V52.3268H7.42677V51.7884Z" fill="#2C2C2C"/>
<path id="Vector_54" d="M7.98244 51.7884H7.42725V52.3268H7.98244V51.7884Z" fill="#2C2C2C"/>
<path id="Vector_55" d="M8.53517 51.7884H7.97998V52.3268H8.53517V51.7884Z" fill="#2C2C2C"/>
<path id="Vector_56" d="M9.09035 51.7884H8.53516V52.3268H9.09035V51.7884Z" fill="#2C2C2C"/>
<path id="Vector_57" d="M9.64601 51.7884H9.09082V52.3268H9.64601V51.7884Z" fill="#2C2C2C"/>
<path id="Vector_58" d="M2.43605 52.3268H1.88086V52.8652H2.43605V52.3268Z" fill="#2C2C2C"/>
<path id="Vector_59" d="M2.99122 52.3268H2.43604V52.8652H2.99122V52.3268Z" fill="#2C2C2C"/>
<path id="Vector_60" d="M4.09963 52.3268H3.54443V52.8652H4.09963V52.3268Z" fill="#2C2C2C"/>
<path id="Vector_61" d="M5.76369 52.3268H5.2085V52.8652H5.76369V52.3268Z" fill="#2C2C2C"/>
<path id="Vector_62" d="M6.87208 52.3268H6.31689V52.8652H6.87208V52.3268Z" fill="#2C2C2C"/>
<path id="Vector_63" d="M7.42677 52.3268H6.87158V52.8652H7.42677V52.3268Z" fill="#2C2C2C"/>
<path id="Vector_64" d="M8.53517 52.3268H7.97998V52.8652H8.53517V52.3268Z" fill="#2C2C2C"/>
<path id="Vector_65" d="M9.64601 52.3268H9.09082V52.8652H9.64601V52.3268Z" fill="#2C2C2C"/>
<path id="Vector_66" d="M4.65529 52.8651H4.1001V53.4035H4.65529V52.8651Z" fill="#2C2C2C"/>
<path id="Vector_67" d="M5.20802 52.8651H4.65283V53.4035H5.20802V52.8651Z" fill="#2C2C2C"/>
<path id="Vector_68" d="M5.76369 52.8651H5.2085V53.4035H5.76369V52.8651Z" fill="#2C2C2C"/>
<path id="Vector_69" d="M7.42677 52.8651H6.87158V53.4035H7.42677V52.8651Z" fill="#2C2C2C"/>
<path id="Vector_70" d="M7.98244 52.8651H7.42725V53.4035H7.98244V52.8651Z" fill="#2C2C2C"/>
<path id="Vector_71" d="M9.09035 52.8651H8.53516V53.4035H9.09035V52.8651Z" fill="#2C2C2C"/>
<path id="Vector_72" d="M9.64601 52.8651H9.09082V53.4035H9.64601V52.8651Z" fill="#2C2C2C"/>
<path id="Vector_73" d="M4.65529 53.4016H4.1001V53.94H4.65529V53.4016Z" fill="#2C2C2C"/>
<path id="Vector_74" d="M5.20802 53.4016H4.65283V53.94H5.20802V53.4016Z" fill="#2C2C2C"/>
<path id="Vector_75" d="M5.76369 53.4016H5.2085V53.94H5.76369V53.4016Z" fill="#2C2C2C"/>
<path id="Vector_76" d="M6.87208 53.4016H6.31689V53.94H6.87208V53.4016Z" fill="#2C2C2C"/>
<path id="Vector_77" d="M7.42677 53.4016H6.87158V53.94H7.42677V53.4016Z" fill="#2C2C2C"/>
<path id="Vector_78" d="M8.53517 53.4016H7.97998V53.94H8.53517V53.4016Z" fill="#2C2C2C"/>
<path id="Vector_79" d="M5.76369 53.94H5.2085V54.4784H5.76369V53.94Z" fill="#2C2C2C"/>
<path id="Vector_80" d="M6.31886 53.94H5.76367V54.4784H6.31886V53.94Z" fill="#2C2C2C"/>
<path id="Vector_81" d="M7.42677 53.94H6.87158V54.4784H7.42677V53.94Z" fill="#2C2C2C"/>
<path id="Vector_82" d="M7.98244 53.94H7.42725V54.4784H7.98244V53.94Z" fill="#2C2C2C"/>
<path id="Vector_83" d="M8.53517 53.94H7.97998V54.4784H8.53517V53.94Z" fill="#2C2C2C"/>
<path id="Vector_84" d="M9.64601 53.94H9.09082V54.4784H9.64601V53.94Z" fill="#2C2C2C"/>
<path id="Vector_85" d="M4.65529 54.4784H4.1001V55.0167H4.65529V54.4784Z" fill="#2C2C2C"/>
<path id="Vector_86" d="M5.20802 54.4784H4.65283V55.0167H5.20802V54.4784Z" fill="#2C2C2C"/>
<path id="Vector_87" d="M6.31886 54.4784H5.76367V55.0167H6.31886V54.4784Z" fill="#2C2C2C"/>
<path id="Vector_88" d="M6.87208 54.4784H6.31689V55.0167H6.87208V54.4784Z" fill="#2C2C2C"/>
<path id="Vector_89" d="M7.98244 54.4784H7.42725V55.0167H7.98244V54.4784Z" fill="#2C2C2C"/>
<path id="Vector_90" d="M9.09035 54.4784H8.53516V55.0167H9.09035V54.4784Z" fill="#2C2C2C"/>
<path id="Vector_91" d="M2.71242 54.2083H2.15723V54.7466H2.71242V54.2083Z" fill="#2C2C2C"/>
<path id="Vector_92" d="M2.9898 53.4016H1.32617V55.5532H3.54304V53.4016H2.9898ZM2.9898 54.4783V55.0148H1.88136V53.94H2.9898V54.4783Z" fill="#2C2C2C"/>
<path id="Vector_93" d="M4.65529 55.0148H4.1001V55.5532H4.65529V55.0148Z" fill="#2C2C2C"/>
<path id="Vector_94" d="M5.76369 55.0148H5.2085V55.5532H5.76369V55.0148Z" fill="#2C2C2C"/>
<path id="Vector_95" d="M6.87208 55.0148H6.31689V55.5532H6.87208V55.0148Z" fill="#2C2C2C"/>
<path id="Vector_96" d="M8.53517 55.0148H7.97998V55.5532H8.53517V55.0148Z" fill="#2C2C2C"/>
<path id="Vector_97" d="M9.09035 55.0148H8.53516V55.5532H9.09035V55.0148Z" fill="#2C2C2C"/>
<path id="Vector_98" d="M9.64601 55.0148H9.09082V55.5532H9.64601V55.0148Z" fill="#2C2C2C"/>
</g>
<g id="Clip path group">
<mask id="mask0_358_820" style="mask-type:luminance" maskUnits="userSpaceOnUse" x="0" y="47" width="10" height="17">
<g id="clip-path">
<path id="Vector_99" d="M8.80467 47.396C9.05768 47.396 9.30033 47.4957 9.47924 47.6731C9.65815 47.8505 9.75866 48.0912 9.75866 48.3421V55.5066C9.50525 59.5592 7.47805 62.3466 2.41004 63.6136C2.41004 63.6136 2.15663 63.6136 1.57193 63.6136C1.3215 63.6107 1.08242 63.5095 0.907045 63.3322C0.731672 63.1549 0.634305 62.9158 0.636259 62.6674V48.3421C0.634305 48.0937 0.731672 47.8547 0.907045 47.6774C1.08242 47.5 1.3215 47.3988 1.57193 47.396H8.80467Z" fill="white"/>
</g>
</mask>
<g mask="url(#mask0_358_820)">
<g id="Group">
<path id="Vector_100" d="M4.65529 55.2283H4.1001V55.7667H4.65529V55.2283Z" fill="#2C2C2C"/>
<path id="Vector_101" d="M5.76369 55.2283H5.2085V55.7667H5.76369V55.2283Z" fill="#2C2C2C"/>
<path id="Vector_102" d="M6.87208 55.2283H6.31689V55.7667H6.87208V55.2283Z" fill="#2C2C2C"/>
<path id="Vector_103" d="M4.65529 55.7648H4.1001V56.3032H4.65529V55.7648Z" fill="#2C2C2C"/>
<path id="Vector_104" d="M2.71242 56.0349H2.15723V56.5733H2.71242V56.0349Z" fill="#2C2C2C"/>
<path id="Vector_105" d="M6.31886 55.7648H5.76367V56.3032H6.31886V55.7648Z" fill="#2C2C2C"/>
<path id="Vector_106" d="M6.87208 55.7648H6.31689V56.3032H6.87208V55.7648Z" fill="#2C2C2C"/>
<path id="Vector_107" d="M4.65529 56.3031H4.1001V56.8415H4.65529V56.3031Z" fill="#2C2C2C"/>
<path id="Vector_108" d="M5.20802 56.3031H4.65283V56.8415H5.20802V56.3031Z" fill="#2C2C2C"/>
<path id="Vector_109" d="M5.76369 56.3031H5.2085V56.8415H5.76369V56.3031Z" fill="#2C2C2C"/>
<path id="Vector_110" d="M6.87208 56.3031H6.31689V56.8415H6.87208V56.3031Z" fill="#2C2C2C"/>
<path id="Vector_111" d="M2.9898 55.2283H1.32617V57.378H3.54304V55.2283H2.9898ZM2.9898 56.3032V56.8415H1.88136V55.7648H2.9898V56.3032Z" fill="#2C2C2C"/>
<path id="Vector_112" d="M5.76369 56.8416H5.2085V57.3799H5.76369V56.8416Z" fill="#2C2C2C"/>
<path id="Vector_113" d="M6.31886 56.8416H5.76367V57.3799H6.31886V56.8416Z" fill="#2C2C2C"/>
<path id="Vector_114" d="M9.09087 55.2283H7.42725V57.378H9.64412V55.2283H9.09087ZM9.09087 56.3032V56.8415H7.98049V55.7648H9.09087V56.3032Z" fill="#2C2C2C"/>
<path id="Vector_115" d="M8.81398 56.0349H8.25879V56.5733H8.81398V56.0349Z" fill="#2C2C2C"/>
<path id="Vector_116" d="M4.65529 57.378H4.1001V57.9164H4.65529V57.378Z" fill="#2C2C2C"/>
<path id="Vector_117" d="M6.87208 57.378H6.31689V57.9164H6.87208V57.378Z" fill="#2C2C2C"/>
<path id="Vector_118" d="M1.88136 57.9164H1.32617V58.4547H1.88136V57.9164Z" fill="#2C2C2C"/>
<path id="Vector_119" d="M2.43605 57.9164H1.88086V58.4547H2.43605V57.9164Z" fill="#2C2C2C"/>
<path id="Vector_120" d="M2.99122 57.9164H2.43604V58.4547H2.99122V57.9164Z" fill="#2C2C2C"/>
<path id="Vector_121" d="M4.09963 57.9164H3.54443V58.4547H4.09963V57.9164Z" fill="#2C2C2C"/>
<path id="Vector_122" d="M5.76369 57.9164H5.2085V58.4547H5.76369V57.9164Z" fill="#2C2C2C"/>
<path id="Vector_123" d="M6.31886 57.9164H5.76367V58.4547H6.31886V57.9164Z" fill="#2C2C2C"/>
<path id="Vector_124" d="M7.42677 57.9164H6.87158V58.4547H7.42677V57.9164Z" fill="#2C2C2C"/>
<path id="Vector_125" d="M7.98244 57.9164H7.42725V58.4547H7.98244V57.9164Z" fill="#2C2C2C"/>
<path id="Vector_126" d="M9.09035 57.9164H8.53516V58.4547H9.09035V57.9164Z" fill="#2C2C2C"/>
<path id="Vector_127" d="M9.64601 57.9164H9.09082V58.4547H9.64601V57.9164Z" fill="#2C2C2C"/>
<path id="Vector_128" d="M2.43605 58.4547H1.88086V58.9931H2.43605V58.4547Z" fill="#2C2C2C"/>
<path id="Vector_129" d="M3.54445 58.4547H2.98926V58.9931H3.54445V58.4547Z" fill="#2C2C2C"/>
<path id="Vector_130" d="M4.09963 58.4547H3.54443V58.9931H4.09963V58.4547Z" fill="#2C2C2C"/>
<path id="Vector_131" d="M4.65529 58.4547H4.1001V58.9931H4.65529V58.4547Z" fill="#2C2C2C"/>
<path id="Vector_132" d="M5.76369 58.4547H5.2085V58.9931H5.76369V58.4547Z" fill="#2C2C2C"/>
<path id="Vector_133" d="M6.87208 58.4547H6.31689V58.9931H6.87208V58.4547Z" fill="#2C2C2C"/>
<path id="Vector_134" d="M8.53517 58.4547H7.97998V58.9931H8.53517V58.4547Z" fill="#2C2C2C"/>
<path id="Vector_135" d="M1.88136 58.9912H1.32617V59.5295H1.88136V58.9912Z" fill="#2C2C2C"/>
<path id="Vector_136" d="M2.43605 58.9912H1.88086V59.5295H2.43605V58.9912Z" fill="#2C2C2C"/>
<path id="Vector_137" d="M2.99122 58.9912H2.43604V59.5295H2.99122V58.9912Z" fill="#2C2C2C"/>
<path id="Vector_138" d="M4.65529 58.9912H4.1001V59.5295H4.65529V58.9912Z" fill="#2C2C2C"/>
<path id="Vector_139" d="M5.20802 58.9912H4.65283V59.5295H5.20802V58.9912Z" fill="#2C2C2C"/>
<path id="Vector_140" d="M6.31886 58.9912H5.76367V59.5295H6.31886V58.9912Z" fill="#2C2C2C"/>
<path id="Vector_141" d="M6.87208 58.9912H6.31689V59.5295H6.87208V58.9912Z" fill="#2C2C2C"/>
<path id="Vector_142" d="M7.42677 58.9912H6.87158V59.5295H7.42677V58.9912Z" fill="#2C2C2C"/>
<path id="Vector_143" d="M9.64601 58.9912H9.09082V59.5295H9.64601V58.9912Z" fill="#2C2C2C"/>
<path id="Vector_144" d="M1.88136 59.5295H1.32617V60.0679H1.88136V59.5295Z" fill="#2C2C2C"/>
<path id="Vector_145" d="M2.99122 59.5295H2.43604V60.0679H2.99122V59.5295Z" fill="#2C2C2C"/>
<path id="Vector_146" d="M3.54445 59.5295H2.98926V60.0679H3.54445V59.5295Z" fill="#2C2C2C"/>
<path id="Vector_147" d="M5.76369 59.5295H5.2085V60.0679H5.76369V59.5295Z" fill="#2C2C2C"/>
<path id="Vector_148" d="M6.31886 59.5295H5.76367V60.0679H6.31886V59.5295Z" fill="#2C2C2C"/>
<path id="Vector_149" d="M7.42677 59.5295H6.87158V60.0679H7.42677V59.5295Z" fill="#2C2C2C"/>
<path id="Vector_150" d="M7.98244 59.5295H7.42725V60.0679H7.98244V59.5295Z" fill="#2C2C2C"/>
<path id="Vector_151" d="M8.53517 59.5295H7.97998V60.0679H8.53517V59.5295Z" fill="#2C2C2C"/>
<path id="Vector_152" d="M9.09035 59.5295H8.53516V60.0679H9.09035V59.5295Z" fill="#2C2C2C"/>
<path id="Vector_153" d="M9.64601 59.5295H9.09082V60.0679H9.64601V59.5295Z" fill="#2C2C2C"/>
<path id="Vector_154" d="M2.43605 60.0679H1.88086V60.6063H2.43605V60.0679Z" fill="#2C2C2C"/>
<path id="Vector_155" d="M2.99122 60.0679H2.43604V60.6063H2.99122V60.0679Z" fill="#2C2C2C"/>
<path id="Vector_156" d="M4.09963 60.0679H3.54443V60.6063H4.09963V60.0679Z" fill="#2C2C2C"/>
<path id="Vector_157" d="M5.76369 60.0679H5.2085V60.6063H5.76369V60.0679Z" fill="#2C2C2C"/>
<path id="Vector_158" d="M6.87208 60.0679H6.31689V60.6063H6.87208V60.0679Z" fill="#2C2C2C"/>
<path id="Vector_159" d="M7.42677 60.0679H6.87158V60.6063H7.42677V60.0679Z" fill="#2C2C2C"/>
<path id="Vector_160" d="M8.53517 60.0679H7.97998V60.6063H8.53517V60.0679Z" fill="#2C2C2C"/>
<path id="Vector_161" d="M9.64601 60.0679H9.09082V60.6063H9.64601V60.0679Z" fill="#2C2C2C"/>
<path id="Vector_162" d="M4.65529 60.6044H4.1001V61.1428H4.65529V60.6044Z" fill="#2C2C2C"/>
<path id="Vector_163" d="M5.20802 60.6044H4.65283V61.1428H5.20802V60.6044Z" fill="#2C2C2C"/>
<path id="Vector_164" d="M5.76369 60.6044H5.2085V61.1428H5.76369V60.6044Z" fill="#2C2C2C"/>
<path id="Vector_165" d="M7.42677 60.6044H6.87158V61.1428H7.42677V60.6044Z" fill="#2C2C2C"/>
<path id="Vector_166" d="M7.98244 60.6044H7.42725V61.1428H7.98244V60.6044Z" fill="#2C2C2C"/>
<path id="Vector_167" d="M9.09035 60.6044H8.53516V61.1428H9.09035V60.6044Z" fill="#2C2C2C"/>
<path id="Vector_168" d="M9.64601 60.6044H9.09082V61.1428H9.64601V60.6044Z" fill="#2C2C2C"/>
<path id="Vector_169" d="M4.65529 61.1428H4.1001V61.6812H4.65529V61.1428Z" fill="#2C2C2C"/>
<path id="Vector_170" d="M5.20802 61.1428H4.65283V61.6812H5.20802V61.1428Z" fill="#2C2C2C"/>
<path id="Vector_171" d="M5.76369 61.1428H5.2085V61.6812H5.76369V61.1428Z" fill="#2C2C2C"/>
<path id="Vector_172" d="M6.87208 61.1428H6.31689V61.6812H6.87208V61.1428Z" fill="#2C2C2C"/>
<path id="Vector_173" d="M7.42677 61.1428H6.87158V61.6812H7.42677V61.1428Z" fill="#2C2C2C"/>
<path id="Vector_174" d="M8.53517 61.1428H7.97998V61.6812H8.53517V61.1428Z" fill="#2C2C2C"/>
<path id="Vector_175" d="M5.76369 61.6812H5.2085V62.2195H5.76369V61.6812Z" fill="#2C2C2C"/>
<path id="Vector_176" d="M6.31886 61.6812H5.76367V62.2195H6.31886V61.6812Z" fill="#2C2C2C"/>
<path id="Vector_177" d="M7.42677 61.6812H6.87158V62.2195H7.42677V61.6812Z" fill="#2C2C2C"/>
<path id="Vector_178" d="M7.98244 61.6812H7.42725V62.2195H7.98244V61.6812Z" fill="#2C2C2C"/>
<path id="Vector_179" d="M8.53517 61.6812H7.97998V62.2195H8.53517V61.6812Z" fill="#2C2C2C"/>
<path id="Vector_180" d="M9.64601 61.6812H9.09082V62.2195H9.64601V61.6812Z" fill="#2C2C2C"/>
<path id="Vector_181" d="M4.65529 62.2176H4.1001V62.756H4.65529V62.2176Z" fill="#2C2C2C"/>
<path id="Vector_182" d="M5.20802 62.2176H4.65283V62.756H5.20802V62.2176Z" fill="#2C2C2C"/>
<path id="Vector_183" d="M6.31886 62.2176H5.76367V62.756H6.31886V62.2176Z" fill="#2C2C2C"/>
<path id="Vector_184" d="M6.87208 62.2176H6.31689V62.756H6.87208V62.2176Z" fill="#2C2C2C"/>
<path id="Vector_185" d="M7.98244 62.2176H7.42725V62.756H7.98244V62.2176Z" fill="#2C2C2C"/>
<path id="Vector_186" d="M9.09035 62.2176H8.53516V62.756H9.09035V62.2176Z" fill="#2C2C2C"/>
<path id="Vector_187" d="M2.71242 61.9494H2.15723V62.4878H2.71242V61.9494Z" fill="#2C2C2C"/>
<path id="Vector_188" d="M2.9898 61.1428H1.32617V63.2944H3.54304V61.1428H2.9898ZM2.9898 62.2176V62.756H1.88136V61.6812H2.9898V62.2176Z" fill="#2C2C2C"/>
<path id="Vector_189" d="M4.65529 62.756H4.1001V63.2944H4.65529V62.756Z" fill="#2C2C2C"/>
<path id="Vector_190" d="M5.76369 62.756H5.2085V63.2944H5.76369V62.756Z" fill="#2C2C2C"/>
<path id="Vector_191" d="M6.87208 62.756H6.31689V63.2944H6.87208V62.756Z" fill="#2C2C2C"/>
<path id="Vector_192" d="M8.53517 62.756H7.97998V63.2944H8.53517V62.756Z" fill="#2C2C2C"/>
<path id="Vector_193" d="M9.09035 62.756H8.53516V63.2944H9.09035V62.756Z" fill="#2C2C2C"/>
<path id="Vector_194" d="M9.64601 62.756H9.09082V63.2944H9.64601V62.756Z" fill="#2C2C2C"/>
</g>
</g>
</g>
</g>
</g>
</svg>
